<?xml version="1.0" encoding="UTF-8"?><svg id="a" xmlns="http://www.w3.org/2000/svg" viewBox="0 0 726.81 306.02"><path d="M67.85,288.45c-1.93,0-1.93,3,0,3s1.93-3,0-3Z" fill="#baa163"/><g><path d="M25.37,278.38c4.09-6.32,6.62-13.57,7.3-20.97h0c1.16-12.59,5.11-24.17,11.75-34.41l2.73-4.21c7.47-11.52,4.1-27.26-7.28-36.7,2.66,3.28,4.63,7.03,5.75,11.06,2.07,7.45,1.01,14.95-2.98,21.1l-2.73,4.21c-6.64,10.24-10.6,21.82-11.75,34.41-.68,7.4-3.21,14.66-7.3,20.97C15.59,281.96,8.23,287.88,0,291.34v6.18c10.4-3.12,19.33-9.82,25.37-19.13Z" fill="#c3d3ab"/><path d="M20.85,273.84c4.09-6.31,6.62-13.57,7.3-20.97,1.16-12.59,5.11-24.17,11.75-34.41l2.73-4.21c3.99-6.15,5.05-13.65,2.98-21.1-1.12-4.03-3.09-7.78-5.75-11.06-2.13-2.62-4.7-4.94-7.65-6.85C21.8,168.48,9.11,168.43,0,174.13v5.6c7.66-6.53,19.85-7.1,29.75-.69,11.79,7.64,15.85,22.3,9.08,32.74l-2.73,4.21c-7.03,10.84-11.25,23.29-12.46,36.46-.6,6.51-2.76,13.01-6.59,18.92C12.67,278.12,6.7,283.19,0,286.38v4.96c8.23-3.46,15.59-9.38,20.85-17.49Z" fill="#6f7a56"/><path d="M17.05,271.38c3.83-5.91,5.99-12.41,6.59-18.92,1.21-13.17,5.44-25.62,12.46-36.46l2.73-4.21c6.77-10.44,2.7-25.1-9.08-32.74C19.85,172.62,7.66,173.2,0,179.73v51.29c8.91,7.77,10.83,21.37,4,31.9C2.84,264.72,1.49,266.31,0,267.71v18.67c6.7-3.19,12.67-8.26,17.05-15Z" fill="#bed67b"/><path d="M4,262.92C10.83,252.39,8.91,238.79,0,231.02v36.69c1.49-1.39,2.84-2.99,4-4.79Z" fill="#4c4231"/><path d="M685.95,287.96c-1.68-1.09-3.25-2.29-4.73-3.56,2.62,3.06,5.7,5.81,9.24,8.1,7.07,4.58,15.14,6.94,23.43,6.94,3.33,0,6.7-.38,10.05-1.15,.97-.22,1.92-.49,2.86-.77v-6.17c-5.54,2.32-11.46,3.53-17.41,3.53-8.1,0-16.23-2.23-23.45-6.91Z" fill="#c3d3ab"/><path d="M719.17,181.64l-2.73,4.21c-6.64,10.24-15.6,18.58-26.62,24.77-6.48,3.64-12.07,8.91-16.17,15.22-12.5,19.28-8.88,44.33,7.57,58.55,1.48,1.28,3.05,2.47,4.73,3.56,7.22,4.68,15.35,6.91,23.45,6.91,5.95,0,11.87-1.21,17.41-3.53v-4.96c-12.1,5.77-26.59,5.42-38.39-2.23-18.34-11.89-23.25-36.89-10.96-55.84,3.83-5.91,8.89-10.53,14.58-13.73,11.53-6.48,21.17-15.42,28.2-26.26l2.73-4.21c1.08-1.67,2.38-3.13,3.84-4.37v-5.6c-3.01,1.89-5.63,4.4-7.64,7.51Z" fill="#6f7a56"/><path d="M722.97,184.11l-2.73,4.21c-7.03,10.84-16.67,19.78-28.2,26.26-5.7,3.2-10.75,7.82-14.58,13.73-12.29,18.95-7.38,43.95,10.96,55.84,11.8,7.65,26.29,8,38.39,2.23v-18.66c-8.06,7.53-20.26,9.05-29.65,2.96-11.14-7.22-14.12-22.4-6.66-33.91,7.46-11.51,22.54-14.98,33.67-7.76,.94,.61,1.81,1.28,2.64,1.99v-51.26c-1.46,1.24-2.75,2.7-3.84,4.37Z" fill="#bed67b"/><path d="M690.5,236.77c-7.46,11.51-4.48,26.69,6.66,33.91,9.39,6.09,21.59,4.57,29.65-2.96v-36.72c-.82-.72-1.7-1.38-2.64-1.99-11.14-7.22-26.21-3.75-33.67,7.76Zm17.73,19.02c-1.25,0-1.25-1.94,0-1.94s1.25,1.94,0,1.94Zm1.73,6.48c-1.25,0-1.25-1.94,0-1.94s1.25,1.94,0,1.94Zm5.61-6.91c-1.25,0-1.25-1.94,0-1.94s1.25,1.94,0,1.94Zm3.89,4.75c-1.25,0-1.25-1.94,0-1.94s1.25,1.94,0,1.94Z" fill="#4c4231"/><path d="M708.23,253.85c-1.25,0-1.25,1.94,0,1.94s1.25-1.94,0-1.94Z" fill="#baa163"/><path d="M715.57,253.42c-1.25,0-1.25,1.94,0,1.94s1.25-1.94,0-1.94Z" fill="#baa163"/><path d="M719.46,258.17c-1.25,0-1.25,1.94,0,1.94s1.25-1.94,0-1.94Z" fill="#baa163"/><path d="M709.96,260.33c-1.25,0-1.25,1.94,0,1.94s1.25-1.94,0-1.94Z" fill="#baa163"/></g><g><path d="M701.44,108.38c-4.09-6.32-6.62-13.57-7.3-20.97h0c-1.16-12.59-5.11-24.17-11.75-34.41l-2.73-4.21c-7.47-11.52-4.1-27.26,7.28-36.7-2.66,3.28-4.63,7.03-5.75,11.06-2.07,7.45-1.01,14.95,2.98,21.1l2.73,4.21c6.64,10.24,10.6,21.82,11.75,34.41,.68,7.4,3.21,14.66,7.3,20.97,5.26,8.12,12.62,14.04,20.85,17.49v6.18c-10.4-3.12-19.33-9.82-25.37-19.13Z" fill="#c3d3ab"/><path d="M705.96,103.84c-4.09-6.31-6.62-13.57-7.3-20.97-1.16-12.59-5.11-24.17-11.75-34.41l-2.73-4.21c-3.99-6.15-5.05-13.65-2.98-21.1,1.12-4.03,3.09-7.78,5.75-11.06,2.13-2.62,4.7-4.94,7.65-6.85,10.42-6.76,23.11-6.81,32.22-1.11v5.6c-7.66-6.53-19.85-7.1-29.75-.69-11.79,7.64-15.85,22.3-9.08,32.74l2.73,4.21c7.03,10.84,11.25,23.29,12.46,36.46,.6,6.51,2.76,13.01,6.59,18.92,4.38,6.75,10.35,11.81,17.05,15v4.96c-8.23-3.46-15.59-9.38-20.85-17.49Z" fill="#6f7a56"/><path d="M709.76,101.38c-3.83-5.91-5.99-12.41-6.59-18.92-1.21-13.17-5.44-25.62-12.46-36.46l-2.73-4.21c-6.77-10.44-2.7-25.1,9.08-32.74,9.9-6.42,22.08-5.84,29.75,.69V61.02c-8.91,7.77-10.83,21.37-4,31.9,1.16,1.8,2.51,3.39,4,4.79v18.67c-6.7-3.19-12.67-8.26-17.05-15Z" fill="#bed67b"/><path d="M722.8,92.92c-6.83-10.53-4.91-24.13,4-31.9v36.69c-1.49-1.39-2.84-2.99-4-4.79Z" fill="#4c4231"/><path d="M40.86,117.96c1.68-1.09,3.25-2.29,4.73-3.56-2.62,3.06-5.7,5.81-9.24,8.1-7.07,4.58-15.14,6.94-23.43,6.94-3.33,0-6.7-.38-10.05-1.15-.97-.22-1.92-.49-2.86-.77v-6.17c5.54,2.32,11.46,3.53,17.41,3.53,8.1,0,16.23-2.23,23.45-6.91Z" fill="#c3d3ab"/><path d="M7.64,11.64l2.73,4.21c6.64,10.24,15.6,18.58,26.62,24.77,6.48,3.64,12.07,8.91,16.17,15.22,12.5,19.28,8.88,44.33-7.57,58.55-1.48,1.28-3.05,2.47-4.73,3.56-7.22,4.68-15.35,6.91-23.45,6.91-5.95,0-11.87-1.21-17.41-3.53v-4.96c12.1,5.77,26.59,5.42,38.39-2.23,18.34-11.89,23.25-36.89,10.96-55.84-3.83-5.91-8.89-10.53-14.58-13.73-11.53-6.48-21.17-15.42-28.2-26.26l-2.73-4.21C2.75,12.44,1.46,10.98,0,9.74V4.14c3.01,1.89,5.63,4.4,7.64,7.51Z" fill="#6f7a56"/><path d="M3.84,14.11l2.73,4.21c7.03,10.84,16.67,19.78,28.2,26.26,5.7,3.2,10.75,7.82,14.58,13.73,12.29,18.95,7.38,43.95-10.96,55.84C26.59,121.81,12.1,122.15,0,116.39v-18.66c8.06,7.53,20.26,9.05,29.65,2.96,11.14-7.22,14.12-22.4,6.66-33.91-7.46-11.51-22.54-14.98-33.67-7.76C1.7,59.62,.82,60.29,0,61V9.74c1.46,1.24,2.75,2.7,3.84,4.37Z" fill="#bed67b"/><path d="M2.64,59.01C1.7,59.62,.82,60.29,0,61v36.72c8.06,7.53,20.26,9.05,29.65,2.96,11.14-7.22,14.12-22.4,6.66-33.91-7.46-11.51-22.54-14.98-33.67-7.76Zm15.94,24.84c1.25,0,1.25,1.94,0,1.94s-1.25-1.94,0-1.94Zm-1.73,6.48c1.25,0,1.25,1.94,0,1.94s-1.25-1.94,0-1.94Zm-5.61-6.91c1.25,0,1.25,1.94,0,1.94s-1.25-1.94,0-1.94Zm-3.89,4.75c1.25,0,1.25,1.94,0,1.94s-1.25-1.94,0-1.94Z" fill="#4c4231"/><path d="M18.58,83.85c1.25,0,1.25,1.94,0,1.94s-1.25-1.94,0-1.94Z" fill="#baa163"/><path d="M11.24,83.42c1.25,0,1.25,1.94,0,1.94s-1.25-1.94,0-1.94Z" fill="#baa163"/><path d="M7.35,88.17c1.25,0,1.25,1.94,0,1.94s-1.25-1.94,0-1.94Z" fill="#baa163"/><path d="M16.85,90.33c1.25,0,1.25,1.94,0,1.94s-1.25-1.94,0-1.94Z" fill="#baa163"/></g><g><path d="M431.76,47.97c11.86,14.58,14.22,34.53,4.36,49.73l-4.21,6.5c-10.25,15.81-16.36,33.69-18.15,53.12h0c-1.05,11.43-4.95,22.63-11.27,32.37-10.17,15.68-25.65,26.59-43.6,30.73-5.17,1.19-10.37,1.78-15.51,1.78-12.8,0-25.26-3.64-36.17-10.72-2.56-1.66-4.97-3.49-7.25-5.45,4.04,4.71,8.78,8.93,14.22,12.46,10.91,7.07,23.38,10.72,36.17,10.72,5.14,0,10.34-.59,15.51-1.78,17.95-4.14,33.43-15.05,43.6-30.73,6.32-9.75,10.22-20.94,11.27-32.37h0c1.79-19.43,7.89-37.31,18.15-53.12l4.21-6.5c11.55-17.82,6.32-42.16-11.33-56.73Z" fill="#c3d3ab"/><path d="M343.39,222.2c5.14,0,10.34-.59,15.51-1.78,17.95-4.14,33.43-15.05,43.6-30.73,6.32-9.75,10.22-20.94,11.27-32.37h0c1.79-19.43,7.89-37.31,18.15-53.12l4.21-6.5c9.85-15.2,7.5-35.15-4.36-49.73-3.22-3.97-7.15-7.54-11.72-10.5-10.24-6.64-22.2-9.34-33.69-7.6-11.81,1.78-21.7,8-27.86,17.5l-4.21,6.5c-10.25,15.81-24.08,28.68-41.09,38.24-10,5.62-18.63,13.75-24.96,23.5-10.17,15.68-13.81,34.27-10.26,52.34,2.97,15.12,10.68,28.35,22,38.09,2.28,1.96,4.69,3.79,7.25,5.45,10.91,7.07,23.38,10.72,36.17,10.72Zm-49.29-102.79c5.92-9.13,13.72-16.26,22.51-21.2,17.8-10,32.69-23.8,43.54-40.54l4.21-6.5c10.45-16.12,33.67-19.63,51.87-7.83s24.47,34.43,14.02,50.55l-4.21,6.5c-10.85,16.73-17.37,35.95-19.24,56.29-.92,10.05-4.25,20.08-10.17,29.21-18.97,29.25-57.29,38.08-85.6,19.73-28.31-18.36-35.89-56.95-16.92-86.2Z" fill="#6f7a56"/><path d="M396.62,185.89c5.92-9.13,9.25-19.16,10.17-29.21,1.87-20.33,8.39-39.56,19.24-56.29l4.21-6.5c10.45-16.12,4.18-38.75-14.02-50.55s-41.42-8.29-51.87,7.83l-4.21,6.5c-10.85,16.73-25.73,30.53-43.54,40.54-8.79,4.94-16.6,12.08-22.51,21.2-18.97,29.25-11.39,67.84,16.92,86.2,28.31,18.36,66.64,9.52,85.6-19.73Zm-82.39-53.42c11.52-17.76,34.79-23.13,51.98-11.98,17.19,11.15,21.79,34.58,10.28,52.35-11.52,17.76-34.79,23.13-51.98,11.98-17.19-11.15-21.79-34.58-10.28-52.35Z" fill="#bed67b"/><path d="M324.51,184.81c17.19,11.15,40.47,5.78,51.98-11.98,11.52-17.76,6.92-41.2-10.28-52.35-17.19-11.15-40.47-5.78-51.98,11.98-11.52,17.76-6.92,41.2,10.28,52.35Zm32.91-11.14c1.93,0,1.93,3,0,3s-1.93-3,0-3Zm-6-7.33c1.93,0,1.93,3,0,3s-1.93-3,0-3Zm-8.67,10.67c1.93,0,1.93,3,0,3s-1.93-3,0-3Zm-2.67-10c1.93,0,1.93,3,0,3s-1.93-3,0-3Z" fill="#4c4231"/><path d="M340.08,170c1.93,0,1.93-3,0-3s-1.93,3,0,3Z" fill="#baa163"/><path d="M351.42,169.33c1.93,0,1.93-3,0-3s-1.93,3,0,3Z" fill="#baa163"/><path d="M357.42,176.67c1.93,0,1.93-3,0-3s-1.93,3,0,3Z" fill="#baa163"/><path d="M342.75,180c1.93,0,1.93-3,0-3s-1.93,3,0,3Z" fill="#baa163"/></g><path d="M186.38,170.13H120.4v-33.35l63.37-87.18h53.36v87.66h22.86v33.11h-22.86v38.59h-50.74v-38.83Zm0-32.87v-47.16l-30.97,47.16h30.97Z" fill="#70842b"/><path d="M502.72,170.13h-65.99v-33.35l63.37-87.18h53.36v87.66h22.86v33.11h-22.86v38.59h-50.74v-38.83Zm0-32.87v-47.16l-30.97,47.16h30.97Z" fill="#70842b"/><g><path d="M111.24,249.84h16.04l21.87,29.6v-29.6h14.28v54.9h-15.96l-22.02-28.57v28.57h-14.21v-54.9Z" fill="#70842b"/><path d="M185.18,302.35c-4.45-2.45-7.9-5.84-10.37-10.18-2.47-4.33-3.71-9.27-3.71-14.8s1.24-10.56,3.71-14.92c2.47-4.36,5.93-7.75,10.37-10.18,4.44-2.42,9.53-3.63,15.28-3.63s10.84,1.21,15.28,3.63c4.44,2.42,7.9,5.8,10.37,10.13,2.47,4.34,3.71,9.33,3.71,14.96s-1.24,10.47-3.71,14.8c-2.47,4.34-5.95,7.73-10.41,10.18-4.47,2.44-9.55,3.67-15.24,3.67s-10.84-1.22-15.28-3.67Zm23.54-14.76c2.16-2.6,3.23-6.04,3.23-10.29,0-2.82-.49-5.33-1.48-7.54-.98-2.2-2.35-3.94-4.11-5.19-1.75-1.25-3.75-1.88-5.98-1.88s-4.15,.63-5.9,1.88c-1.76,1.25-3.11,2.98-4.07,5.19-.96,2.21-1.44,4.72-1.44,7.54,0,4.26,1.06,7.69,3.19,10.29,2.13,2.61,4.89,3.91,8.3,3.91s6.1-1.3,8.26-3.91Z" fill="#70842b"/><path d="M244.43,261.97h-11.41v-12.13h41.42v12.13h-11.41v42.77h-18.59v-42.77Z" fill="#70842b"/><path d="M296.85,249.84h37.82v12.13h-20.67v11.09h19.15v10.06h-19.15v21.63h-17.16v-54.9Z" fill="#70842b"/><path d="M353.71,302.35c-4.45-2.45-7.9-5.84-10.37-10.18-2.47-4.33-3.71-9.27-3.71-14.8s1.24-10.56,3.71-14.92c2.47-4.36,5.93-7.75,10.37-10.18,4.44-2.42,9.53-3.63,15.28-3.63s10.84,1.21,15.28,3.63c4.44,2.42,7.9,5.8,10.37,10.13,2.47,4.34,3.71,9.33,3.71,14.96s-1.24,10.47-3.71,14.8c-2.47,4.34-5.95,7.73-10.41,10.18-4.47,2.44-9.55,3.67-15.24,3.67s-10.84-1.22-15.28-3.67Zm23.54-14.76c2.16-2.6,3.23-6.04,3.23-10.29,0-2.82-.49-5.33-1.48-7.54-.98-2.2-2.35-3.94-4.11-5.19-1.75-1.25-3.75-1.88-5.98-1.88s-4.15,.63-5.9,1.88c-1.76,1.25-3.11,2.98-4.07,5.19-.96,2.21-1.44,4.72-1.44,7.54,0,4.26,1.06,7.69,3.19,10.29,2.13,2.61,4.89,3.91,8.3,3.91s6.1-1.3,8.26-3.91Z" fill="#70842b"/><path d="M418.58,302.98c-4.12-2.02-7.33-4.85-9.61-8.5-2.29-3.64-3.43-7.81-3.43-12.49v-32.16h18.03v32.16c0,3.19,.77,5.58,2.32,7.18,1.54,1.59,3.8,2.39,6.78,2.39s5.24-.81,6.78-2.44c1.54-1.62,2.31-4,2.31-7.14v-32.16h18.04v32.16c0,4.68-1.15,8.84-3.43,12.49-2.29,3.64-5.49,6.48-9.62,8.5-4.12,2.02-8.82,3.03-14.08,3.03s-9.96-1.01-14.09-3.03Z" fill="#70842b"/><path d="M469.69,249.84h16.04l21.87,29.6v-29.6h14.28v54.9h-15.96l-22.02-28.57v28.57h-14.21v-54.9Z" fill="#70842b"/><path d="M532.25,249.84h23.86c5.74,0,10.84,1.14,15.28,3.43,4.44,2.29,7.9,5.48,10.37,9.58,2.47,4.09,3.71,8.78,3.71,14.04,0,5.53-1.21,10.4-3.63,14.6-2.42,4.2-5.85,7.46-10.29,9.78-4.44,2.32-9.59,3.47-15.44,3.47h-23.86v-54.9Zm23.06,40.54c3.99,0,7.03-1.26,9.14-3.79,2.1-2.53,3.15-5.81,3.15-9.85,0-3.83-1.03-6.88-3.07-9.14-2.05-2.26-5.12-3.39-9.21-3.39h-5.43v26.17h5.43Z" fill="#70842b"/></g></svg>